HIERARCHY
ROOT Hips
{
	OFFSET 0.00000 0.00000 0.00000
	CHANNELS 6 Xposition Yposition Zposition Zrotation Yrotation Xrotation 
	JOINT RightUpLegDummy
	{
		OFFSET 0 0 0
		CHANNELS 3 Zrotation Yrotation Xrotation
		JOINT RightUpLeg
		{
			OFFSET -3.52197 -3.41223 0.04002
			CHANNELS 3 Zrotation Yrotation Xrotation
			JOINT RightLeg
			{
				OFFSET 0.00006 -17.42390 1.60435
				CHANNELS 3 Zrotation Yrotation Xrotation
				JOINT RightFoot
				{
					OFFSET 0.06153 -16.50078 -1.63901
					CHANNELS 3 Zrotation Yrotation Xrotation
					JOINT RightToes
					{
						OFFSET 0.00298 -1.73825 3.34613
						CHANNELS 3 Zrotation Yrotation Xrotation
						End Site
						{
							OFFSET 0.00480 -0.05416 3.85043
						}
					}
				}
			}
		}
	}
	JOINT SpineDummy
	{
		OFFSET 0 0 0
		CHANNELS 3 Zrotation Yrotation Xrotation
		JOINT Spine
		{
			OFFSET 0.00000 4.68130 0.00000
			CHANNELS 3 Zrotation Yrotation Xrotation
			JOINT Spine1
			{
				OFFSET -0.00000 10.10138 0.05002
				CHANNELS 3 Zrotation Yrotation Xrotation
				JOINT HEadDummy
				{
					OFFSET 0 0 0
					CHANNELS 3 Zrotation Yrotation Xrotation
					JOINT Head
					{
						OFFSET -0.00000 3.43865 0.00438
						CHANNELS 3 Zrotation Yrotation Xrotation
						End Site
						{
							OFFSET -0.11417 5.02924 0.98962
						}
					}
				}
				JOINT LeftShoulder1Dummy
				{
					OFFSET 0 0 0
					CHANNELS 3 Zrotation Yrotation Xrotation
					JOINT LeftShoulder1
					{
						OFFSET 3.53937 -0.14262 -0.08662
						CHANNELS 3 Zrotation Yrotation Xrotation
						JOINT LeftArm
						{
							OFFSET 4.04833 -0.00133 0.12681
							CHANNELS 3 Zrotation Yrotation Xrotation
							JOINT LeftForeArm
							{
								OFFSET 10.33880 -0.01036 -0.55515
								CHANNELS 3 Zrotation Yrotation Xrotation
								JOINT LeftHand
								{
									OFFSET 8.69677 0.07543 0.40060
									CHANNELS 3 Zrotation Yrotation Xrotation
									End Site
									{
										OFFSET 5.28377 -0.21905 0.59205
									}
								}
							}
						}
					}
				}
				JOINT RightShoulderDummy
				{
					OFFSET 0 0 0
					CHANNELS 3 Zrotation Yrotation Xrotation
					JOINT RightShoulder
					{
						OFFSET -3.53937 -0.14262 -0.08660
						CHANNELS 3 Zrotation Yrotation Xrotation
						JOINT RightArm
						{
							OFFSET -4.04833 -0.00133 0.12683
							CHANNELS 3 Zrotation Yrotation Xrotation
							JOINT RightForeArm
							{
								OFFSET -10.37987 -0.01039 -0.55511
								CHANNELS 3 Zrotation Yrotation Xrotation
								JOINT RightHand
								{
									OFFSET -8.67398 0.07538 0.40058
									CHANNELS 3 Zrotation Yrotation Xrotation
									End Site
									{
										OFFSET -5.24810 -0.21916 0.59204
									}
								}
							}
						}
					}
				}
			}
		}
	}
	JOINT LeftUpLegDummy
	{
		OFFSET 0 0 0
		CHANNELS 3 Zrotation Yrotation Xrotation
		JOINT LeftUpLeg
		{
			OFFSET 3.52197 -3.41223 0.04002
			CHANNELS 3 Zrotation Yrotation Xrotation
			JOINT LeftLeg
			{
				OFFSET -0.00012 -17.42399 1.60337
				CHANNELS 3 Zrotation Yrotation Xrotation
				JOINT LeftFoot
				{
					OFFSET -0.09972 -16.50070 -1.63802
					CHANNELS 3 Zrotation Yrotation Xrotation
					JOINT LeftToes
					{
						OFFSET -0.01575 -1.73823 3.34611
						CHANNELS 3 Zrotation Yrotation Xrotation
						End Site
						{
							OFFSET 0.03150 -0.01868 3.85031
						}
					}
				}
			}
		}
	}
}
MOTION
Frames: 9
Frame Time: 0.033333
-0.0405 37.8096 71.7291 -168.8870 -61.4180 165.3480 0.0000 0.0000 0.0000 11.4579 3.1290 -15.9567 -0.9815 -5.3584 22.4545 -2.9946 0.1592 -4.6837 0.0000 -0.0000 -0.0000 0.0000 0.0000 0.0000 -3.1310 -6.7636 7.7569 12.6683 -9.0183 -1.0943 -0.0000 0.0000 -0.0000 11.4951 -34.3699 -8.8671 -0.0000 0.0000 -0.0000 -34.1135 -3.0260 2.6211 -43.1963 -20.7817 -17.1745 -9.9980 5.0004 52.4992 15.0792 -4.2178 -1.2170 -0.0000 0.0000 -0.0000 34.0244 4.9381 3.3797 39.5350 3.4671 -22.8229 8.6599 1.2663 16.6335 -11.0696 2.3783 -0.7217 0.0000 0.0000 0.0000 7.9836 16.2937 -0.5654 -12.3247 -6.4005 58.2636 -13.6919 2.2519 7.5945 0.0000 0.0000 -0.0000
-1.4125 37.9663 71.3738 -170.2730 -59.5468 166.4530 0.0000 0.0000 0.0000 11.0074 2.4611 -13.6716 0.0232 -2.9679 23.3200 -3.3526 0.1080 -6.8185 0.0000 -0.0000 -0.0000 0.0000 0.0000 0.0000 -2.4500 -6.0198 7.3235 11.2666 -8.0759 -0.8745 -0.0000 0.0000 -0.0000 10.8211 -34.6608 -7.6366 -0.0000 0.0000 -0.0000 -33.9675 -2.8411 2.5377 -41.8793 -21.7044 -18.0394 -9.4828 4.9866 53.1258 15.9445 -3.9466 -1.2542 -0.0000 0.0000 -0.0000 33.9053 4.9153 3.3605 41.6191 3.4414 -20.4862 9.4184 3.3289 17.3256 -10.6305 2.6114 -0.7114 0.0000 0.0000 0.0000 7.5361 17.2276 -5.3334 -4.9167 -2.3917 60.8378 -7.7712 0.9436 2.9627 0.0000 0.0000 -0.0000
-2.7991 38.1204 71.0537 -172.0330 -57.0169 167.9000 0.0000 0.0000 0.0000 10.1694 1.6144 -11.3016 1.3693 0.0455 23.9957 -3.7418 0.0413 -9.0245 0.0000 -0.0000 -0.0000 0.0000 0.0000 0.0000 -1.8156 -5.1468 6.9748 9.9189 -6.9932 -0.8561 -0.0000 0.0000 -0.0000 9.7074 -34.2357 -6.2873 -0.0000 0.0000 -0.0000 -33.7437 -2.6946 2.4651 -41.1955 -21.4248 -18.9503 -9.1650 5.0642 50.7360 17.0195 -3.4176 -1.2680 -0.0000 0.0000 -0.0000 33.6113 4.8683 3.3169 43.4350 3.9560 -17.3223 10.2769 4.9056 19.3332 -10.9549 2.4830 -0.7228 0.0000 0.0000 0.0000 7.0472 17.9237 -9.5180 0.1038 -0.2217 61.2372 -3.8536 0.3836 0.0895 0.0000 0.0000 -0.0000
-4.1747 38.2552 70.7545 -173.8250 -54.5907 169.2170 0.0000 0.0000 0.0000 9.0232 0.9216 -8.9619 2.4891 2.9221 24.6858 -4.6176 -0.0261 -10.9827 0.0000 -0.0000 -0.0000 0.0000 0.0000 0.0000 -1.6798 -4.4524 6.9313 8.9909 -6.1592 -0.9100 -0.0000 0.0000 -0.0000 8.6871 -33.3934 -5.3821 -0.0000 0.0000 -0.0000 -33.7612 -2.6455 2.4467 -40.6524 -20.3209 -19.5120 -9.3387 5.2024 45.8905 18.4925 -2.8300 -1.2922 -0.0000 0.0000 -0.0000 33.6102 4.8727 3.3186 44.4611 4.9687 -13.4463 10.8864 6.0632 23.9400 -11.4253 2.6146 -0.7669 0.0000 0.0000 0.0000 6.5670 17.3186 -12.9908 3.4199 1.3192 59.3634 -0.0447 0.0167 -2.2851 0.0000 0.0000 -0.0000
-5.5634 38.3418 70.4760 -175.3550 -52.1949 170.2110 0.0000 0.0000 0.0000 7.7579 0.7657 -6.6388 3.1594 5.3592 25.3511 -5.1186 -0.1059 -12.6833 0.0000 -0.0000 -0.0000 0.0000 0.0000 0.0000 -1.6553 -3.9568 6.9183 8.1798 -5.5639 -0.7428 -0.0000 0.0000 -0.0000 8.0258 -32.2501 -5.1484 -0.0000 0.0000 -0.0000 -33.9814 -2.6372 2.4571 -40.0801 -18.9530 -19.5432 -9.8948 5.3274 40.7989 19.9368 -2.4707 -1.3376 -0.0000 0.0000 -0.0000 33.7651 4.9014 3.3430 44.6656 6.4542 -10.0571 11.1052 6.3358 30.4900 -11.8458 2.9386 -0.8267 0.0000 0.0000 0.0000 6.6490 15.8852 -15.6234 6.1892 3.1305 55.5368 1.5908 -0.0624 -5.0385 0.0000 0.0000 -0.0000
-6.9806 38.4144 70.2200 -176.3710 -49.6690 170.8830 0.0000 0.0000 0.0000 6.4635 1.2228 -4.2196 3.6106 7.3862 25.4285 -4.9897 -0.1803 -14.2769 0.0000 -0.0000 -0.0000 0.0000 0.0000 0.0000 -1.3522 -3.6556 6.7027 7.3071 -5.1583 -0.3800 -0.0000 0.0000 -0.0000 7.6325 -30.7638 -5.3278 -0.0000 0.0000 -0.0000 -34.1731 -2.6355 2.4683 -39.6524 -17.5290 -19.2014 -10.5017 5.3927 37.6417 20.1146 -2.6599 -1.3810 -0.0000 0.0000 -0.0000 33.7531 4.8982 3.3408 44.3002 8.0977 -8.6682 11.3096 5.7080 34.6738 -12.0881 3.0306 -0.8530 0.0000 0.0000 0.0000 7.6010 14.3491 -17.5561 8.0582 5.1960 50.1711 1.7008 -0.0182 -7.1756 0.0000 0.0000 -0.0000
-8.4003 38.5031 69.9798 -176.9600 -47.2534 171.3320 0.0000 0.0000 0.0000 5.1335 1.8229 -1.7167 4.0592 9.1531 24.7423 -4.9256 -0.2424 -15.6239 0.0000 -0.0000 -0.0000 0.0000 0.0000 0.0000 -1.0149 -3.5567 6.4685 6.6194 -4.9716 -0.1187 -0.0000 0.0000 -0.0000 7.3385 -29.0688 -5.5139 -0.0000 0.0000 -0.0000 -34.2301 -2.6645 2.4835 -39.5240 -16.2193 -18.9610 -10.8009 5.3933 37.4304 18.6644 -3.4654 -1.4021 -0.0000 0.0000 -0.0000 33.6117 4.8699 3.3176 43.6400 9.1950 -8.5611 11.5701 5.4590 32.0764 -11.5580 2.8610 -0.7991 0.0000 0.0000 0.0000 9.2150 12.4782 -18.6911 8.4147 7.0452 43.2443 3.0298 -0.0267 -8.3826 0.0000 0.0000 -0.0000
-9.8052 38.5824 69.7376 -177.3820 -45.0380 171.5140 0.0000 0.0000 0.0000 3.8437 2.4292 0.9597 4.2525 10.5353 23.6268 -5.3667 -0.3001 -16.4454 0.0000 -0.0000 -0.0000 0.0000 0.0000 0.0000 -0.9838 -3.5392 6.4756 6.2757 -4.9188 0.0425 -0.0000 0.0000 -0.0000 7.1104 -27.4048 -5.5534 -0.0000 0.0000 -0.0000 -34.1762 -2.7153 2.5006 -39.6625 -15.3135 -19.1219 -10.6491 5.3421 39.7885 16.9433 -4.5033 -1.4141 -0.0000 0.0000 -0.0000 33.5102 4.8487 3.3006 42.8718 9.4082 -8.6834 11.6088 6.5225 24.5369 -10.2771 2.4374 -0.6733 0.0000 0.0000 0.0000 11.3053 10.0918 -18.5142 7.4594 8.4246 34.6817 4.6376 -0.0127 -9.6224 0.0000 0.0000 -0.0000
-11.1859 38.6586 69.4823 -177.6860 -42.6867 171.3480 0.0000 0.0000 0.0000 2.8001 3.7800 4.0787 3.8105 11.0666 21.8336 -6.0610 -0.3434 -16.6644 0.0000 -0.0000 -0.0000 0.0000 0.0000 0.0000 -1.1397 -3.4355 6.6573 6.1097 -4.8112 0.3700 -0.0000 0.0000 -0.0000 6.9664 -25.8412 -5.5165 -0.0000 0.0000 -0.0000 -34.1779 -2.7347 2.5084 -39.8237 -14.8238 -19.5582 -10.2001 5.2571 43.4794 16.2308 -5.1658 -1.4406 -0.0000 0.0000 -0.0000 33.4448 4.8402 3.2918 42.0384 9.1714 -8.5246 11.2707 8.2367 17.5919 -9.1265 2.0011 -0.5632 0.0000 0.0000 0.0000 13.7839 7.8484 -16.8938 5.8694 9.5042 24.9721 4.6531 0.0482 -10.9300 0.0000 0.0000 -0.0000
